<?xml version="1.0" encoding="UTF-8"?>
<svg xmlns="http://www.w3.org/2000/svg" xmlns:xlink="http://www.w3.org/1999/xlink" viewBox="0 0 1000 800">
  <defs>
    <style>
      .cls-1 {
        letter-spacing: 0em;
      }

      .cls-2, .cls-3 {
        fill: #525352;
      }

      .cls-4, .cls-5 {
        fill: #0a69b3;
      }

      .cls-6, .cls-7, .cls-8, .cls-9 {
        stroke-miterlimit: 10;
      }

      .cls-6, .cls-7, .cls-8, .cls-9, .cls-10, .cls-11 {
        fill: none;
      }

      .cls-6, .cls-9, .cls-5, .cls-10, .cls-11 {
        stroke: #0a69b3;
      }

      .cls-7 {
        stroke: #b4f0ff;
      }

      .cls-12 {
        letter-spacing: 0em;
      }

      .cls-8 {
        stroke: #00a3f6;
      }

      .cls-13 {
        font-family: IntelClear-Bold, 'Intel Clear';
      }

      .cls-13, .cls-14, .cls-15 {
        font-weight: 700;
      }

      .cls-13, .cls-16 {
        font-size: 18px;
      }

      .cls-13, .cls-17 {
        fill: #00285a;
      }

      .cls-14 {
        font-family: IntelOneDisplay-Bold, 'IntelOne Display';
      }

      .cls-14, .cls-16, .cls-18 {
        fill: #0068b5;
      }

      .cls-14, .cls-19 {
        font-size: 21px;
      }

      .cls-15 {
        fill: #004a86;
        font-family: IntelClearPro-Bold, 'Intel Clear Pro';
        font-size: 60px;
      }

      .cls-20 {
        letter-spacing: 0em;
      }

      .cls-21 {
        letter-spacing: 0em;
      }

      .cls-9 {
        stroke-dasharray: 2.99 7.96;
      }

      .cls-22 {
        fill: #b4f0ff;
      }

      .cls-23 {
        letter-spacing: 0em;
      }

      .cls-5 {
        stroke-width: 1.39px;
      }

      .cls-5, .cls-10, .cls-11 {
        stroke-linecap: round;
        stroke-linejoin: round;
      }

      .cls-24 {
        letter-spacing: 0em;
      }

      .cls-25 {
        letter-spacing: 0em;
      }

      .cls-26 {
        letter-spacing: 0em;
      }

      .cls-27 {
        fill: #59595c;
        font-size: 14px;
      }

      .cls-27, .cls-3, .cls-28 {
        font-family: IntelClear-Regular, 'Intel Clear';
      }

      .cls-16, .cls-19, .cls-29 {
        font-family: IntelClear-Light, 'Intel Clear';
        font-weight: 300;
      }

      .cls-3 {
        font-size: 12px;
      }

      .cls-30 {
        fill: #00a3f6;
      }

      .cls-28 {
        fill: #164171;
        font-size: 26px;
      }

      .cls-31 {
        letter-spacing: -.1em;
      }

      .cls-32 {
        letter-spacing: -.02em;
      }

      .cls-33 {
        letter-spacing: -.02em;
      }

      .cls-34 {
        letter-spacing: -.02em;
      }

      .cls-35 {
        letter-spacing: -.02em;
      }

      .cls-36 {
        letter-spacing: -.02em;
      }

      .cls-37 {
        letter-spacing: -.02em;
      }

      .cls-38 {
        letter-spacing: -.02em;
      }

      .cls-39 {
        letter-spacing: -.02em;
      }

      .cls-40 {
        letter-spacing: -.02em;
      }

      .cls-41 {
        letter-spacing: -.02em;
      }

      .cls-42 {
        letter-spacing: -.02em;
      }

      .cls-43 {
        letter-spacing: -.02em;
      }

      .cls-44 {
        letter-spacing: -.01em;
      }

      .cls-45 {
        letter-spacing: -.01em;
      }

      .cls-19, .cls-29 {
        fill: #fff;
      }

      .cls-46 {
        letter-spacing: -.04em;
      }

      .cls-47 {
        letter-spacing: -.03em;
      }

      .cls-48 {
        letter-spacing: -.01em;
      }

      .cls-49 {
        letter-spacing: -.01em;
      }

      .cls-50 {
        letter-spacing: 0em;
      }

      .cls-51 {
        letter-spacing: 0em;
      }

      .cls-52 {
        letter-spacing: 0em;
      }

      .cls-11 {
        stroke-width: 5px;
      }

      .cls-29 {
        font-size: 24px;
      }

      .cls-53 {
        letter-spacing: .02em;
      }

      .cls-54 {
        letter-spacing: .02em;
      }

      .cls-55 {
        letter-spacing: .02em;
      }

      .cls-56 {
        letter-spacing: .01em;
      }

      .cls-57 {
        letter-spacing: .06em;
      }

      .cls-58 {
        letter-spacing: 0em;
      }
    </style>
    <symbol id="Help_Desk" data-name="Help Desk" viewBox="0 0 271 266">
      <g>
        <rect class="cls-5" x="26.5" y="79.23" width="218" height="167" rx="4" ry="4"/>
        <rect class="cls-8" x=".5" y=".5" width="270" height="265" rx="4" ry="4"/>
        <text class="cls-19" transform="translate(98.07 168.15)"><tspan class="cls-36" x="0" y="0">C</tspan><tspan x="12.66" y="0">onso</tspan><tspan class="cls-36" x="58.65" y="0">l</tspan><tspan x="63.78" y="0">e</tspan></text>
        <rect class="cls-7" x="41.5" y="93.23" width="188" height="138" rx="4" ry="4"/>
        <text class="cls-14" transform="translate(85.59 41.5)"><tspan x="0" y="0">Help Desk</tspan></text>
      </g>
    </symbol>
    <symbol id="IntelAMT" viewBox="0 0 270.31 61">
      <g>
        <rect class="cls-17" width="270.31" height="61" rx="4" ry="4"/>
        <text class="cls-29" transform="translate(74.17 37.46)"><tspan x="0" y="0">I</tspan><tspan class="cls-45" x="5.9" y="0">n</tspan><tspan x="19.44" y="0">tel® AMT</tspan></text>
      </g>
    </symbol>
    <symbol id="LightweightClient" viewBox="0 0 271 266">
      <g>
        <rect class="cls-5" x="26.5" y="79.23" width="218" height="167" rx="4" ry="4"/>
        <rect class="cls-8" x=".5" y=".5" width="270" height="265" rx="4" ry="4"/>
        <text class="cls-14" transform="translate(46.46 33.18)"><tspan x="0" y="0">Light</tspan><tspan class="cls-36" x="50.29" y="0">w</tspan><tspan x="67.41" y="0">eight Client</tspan></text>
        <text class="cls-19" transform="translate(96.93 142.95)"><tspan class="cls-41" x="0" y="0">R</tspan><tspan x="12.31" y="0">emote </tspan><tspan x="-20.89" y="25.2">P</tspan><tspan class="cls-41" x="-8.21" y="25.2">r</tspan><tspan x="-.94" y="25.2">ovisioning </tspan><tspan x="-15.42" y="50.4">Clie</tspan><tspan class="cls-41" x="18.97" y="50.4">n</tspan><tspan x="30.82" y="50.4">t (RPC)</tspan></text>
        <rect class="cls-7" x="41.5" y="93.23" width="188" height="138" rx="4" ry="4"/>
      </g>
    </symbol>
  </defs>
  <g id="Console_Deployment" data-name="Console Deployment">
    <use width="271" height="266" transform="translate(25.33 167.86)" xlink:href="#Help_Desk"/>
    <use width="271" height="266" transform="translate(693.94 167.86)" xlink:href="#LightweightClient"/>
    <g>
      <text class="cls-27" transform="translate(100.19 648.16) rotate(-.44)"><tspan x="0" y="0">Devi</tspan><tspan class="cls-49" x="27.79" y="0">c</tspan><tspan x="34.44" y="0">e Manageme</tspan><tspan class="cls-44" x="114.99" y="0">n</tspan><tspan x="123.03" y="0">t </tspan><tspan class="cls-31" x="131.33" y="0">T</tspan><tspan x="138.42" y="0">oolkit</tspan><tspan class="cls-32" x="0" y="16.8">C</tspan><tspan x="8.57" y="16.8">ompone</tspan><tspan class="cls-44" x="61.67" y="16.8">n</tspan><tspan x="69.71" y="16.8">t</tspan></text>
      <rect class="cls-4" x="59.36" y="636.01" width="31.82" height="31.82" rx="4" ry="4" transform="translate(-5.07 .61) rotate(-.45)"/>
      <text class="cls-27" transform="translate(100.19 702.37) rotate(-.44)"><tspan x="0" y="0">I</tspan><tspan class="cls-39" x="3.78" y="0">n</tspan><tspan class="cls-23" x="11.82" y="0">tel® Ha</tspan><tspan class="cls-44" x="54.63" y="0">r</tspan><tspan x="59.62" y="0">dwa</tspan><tspan class="cls-39" x="85.71" y="0">r</tspan><tspan x="90.7" y="0">e/Fir</tspan><tspan class="cls-50" x="119.94" y="0">m</tspan><tspan class="cls-23" x="132.13" y="0">wa</tspan><tspan class="cls-44" x="149.76" y="0">r</tspan><tspan x="154.75" y="0">e</tspan></text>
      <rect class="cls-17" x="59.36" y="681.01" width="31.82" height="31.82" rx="4" ry="4" transform="translate(-5.42 .61) rotate(-.45)"/>
    </g>
    <text class="cls-28" transform="translate(673.12 63)"><tspan class="cls-35" x="0" y="0">C</tspan><tspan x="15.91" y="0">onso</tspan><tspan class="cls-35" x="74.02" y="0">l</tspan><tspan x="80.7" y="0">e Dep</tspan><tspan class="cls-35" x="148.8" y="0">l</tspan><tspan x="155.48" y="0">oyme</tspan><tspan class="cls-40" x="220.95" y="0">n</tspan><tspan class="cls-20" x="235.87" y="0">t F</tspan><tspan class="cls-35" x="265.43" y="0">l</tspan><tspan class="cls-24" x="272.11" y="0">ow</tspan></text>
    <text class="cls-15" transform="translate(28.04 79.84)"><tspan x="0" y="0">D</tspan><tspan class="cls-58" x="20.7" y="0">e</tspan><tspan class="cls-1" x="38.28" y="0">vice Management </tspan><tspan class="cls-52" x="322.19" y="0">T</tspan><tspan class="cls-1" x="340.01" y="0">oolkit </tspan></text>
    <line class="cls-11" x1="831.92" y1="425.05" x2="831.92" y2="552.74"/>
    <use width="270.31" height="61" transform="translate(698.49 522.24)" xlink:href="#IntelAMT"/>
    <text class="cls-27" transform="translate(100.19 746.46) rotate(-.44)"><tspan x="0" y="0">3</tspan><tspan class="cls-39" x="8.32" y="0">r</tspan><tspan x="13.31" y="0">d </tspan><tspan class="cls-47" x="25.19" y="0">P</tspan><tspan class="cls-23" x="33.38" y="0">a</tspan><tspan class="cls-54" x="40.64" y="0">r</tspan><tspan class="cls-56" x="46.1" y="0">t</tspan><tspan class="cls-12" x="51.2" y="0">y/Mic</tspan><tspan class="cls-44" x="85.65" y="0">r</tspan><tspan x="90.65" y="0">oso</tspan><tspan class="cls-53" x="113.69" y="0">f</tspan><tspan x="118.72" y="0">t* </tspan><tspan class="cls-49" x="132.55" y="0">S</tspan><tspan x="140.74" y="0">e</tspan><tspan class="cls-57" x="148.29" y="0">r</tspan><tspan class="cls-12" x="154.26" y="0">vi</tspan><tspan class="cls-50" x="164.8" y="0">c</tspan><tspan x="171.46" y="0">es</tspan></text>
    <g>
      <path class="cls-22" d="M819.91,491.4l.43-35.79c.05-3.91,5.39-7.08,11.87-7.06h0c6.49.02,11.77,3.25,11.72,7.16l-.43,35.79c-.05,3.91-5.39,7.08-11.87,7.06h0c-6.49-.02-11.77-3.25-11.72-7.16Z"/>
      <path class="cls-18" d="M800.19,484.06c-.55,0-1.02-.2-1.41-.59s-.59-.86-.59-1.41v-10c0-.55.2-1.02.59-1.41s.86-.59,1.41-.59h1v-2c0-1.38.49-2.56,1.46-3.54s2.15-1.46,3.54-1.46,2.56.49,3.54,1.46,1.46,2.15,1.46,3.54v2h1c.55,0,1.02.2,1.41.59s.59.86.59,1.41v10c0,.55-.2,1.02-.59,1.41s-.86.59-1.41.59h-12ZM800.19,482.06h12v-10h-12v10ZM806.19,479.06c.55,0,1.02-.2,1.41-.59s.59-.86.59-1.41-.2-1.02-.59-1.41-.86-.59-1.41-.59-1.02.2-1.41.59-.59.86-.59,1.41.2,1.02.59,1.41.86.59,1.41.59ZM803.19,470.06h6v-2c0-.83-.29-1.54-.88-2.13s-1.29-.88-2.13-.88-1.54.29-2.13.88-.88,1.29-.88,2.13v2ZM800.19,482.06v-10,10Z"/>
      <text class="cls-3" transform="translate(835.66 484.76) rotate(-89.61)"><tspan class="cls-46" x="0" y="0">T</tspan><tspan x="6.79" y="0">CP</tspan></text>
    </g>
    <rect class="cls-2" x="59.36" y="725.09" width="31.82" height="31.82" rx="4" ry="4" transform="translate(-5.76 .61) rotate(-.45)"/>
  </g>
  <g id="Deployment_Workflow" data-name="Deployment Workflow">
    <g>
      <rect class="cls-10" x="324.02" y="490.65" width="165" height="65" rx="4" ry="4"/>
      <text class="cls-16" transform="translate(354.25 528.07) scale(.99 1)"><tspan x="0" y="0">Add A Devi</tspan><tspan class="cls-48" x="87.86" y="0">c</tspan><tspan x="96.21" y="0">e</tspan></text>
      <g>
        <ellipse class="cls-30" cx="324.29" cy="490.43" rx="11.87" ry="12"/>
        <text class="cls-13" transform="translate(318.89 495.3) scale(.99 1)"><tspan x="0" y="0">5</tspan></text>
      </g>
    </g>
    <g>
      <rect class="cls-10" x="322.66" y="178.63" width="165" height="65" rx="4" ry="4"/>
      <text class="cls-16" transform="translate(354.32 216.23) scale(1.02 1)"><tspan x="0" y="0">Run </tspan><tspan class="cls-38" x="35.78" y="0">C</tspan><tspan x="46.64" y="0">onso</tspan><tspan class="cls-33" x="86.06" y="0">l</tspan><tspan class="cls-21" x="90.45" y="0">e</tspan></text>
      <g>
        <ellipse class="cls-30" cx="323.38" cy="179.86" rx="12.21" ry="12"/>
        <text class="cls-13" transform="translate(317.5 184.55) scale(1.02 1)"><tspan x="0" y="0">1</tspan></text>
      </g>
    </g>
    <g>
      <rect class="cls-10" x="324.03" y="362.41" width="165" height="65" rx="4" ry="4"/>
      <text class="cls-16" transform="translate(352.93 397.12) scale(.99 1)"><tspan x="0" y="0">Expo</tspan><tspan class="cls-55" x="39.87" y="0">r</tspan><tspan x="46.64" y="0">t P</tspan><tspan class="cls-43" x="68.02" y="0">r</tspan><tspan class="cls-26" x="74.25" y="0">ofi</tspan><tspan class="cls-37" x="94.53" y="0">l</tspan><tspan x="98.93" y="0">e</tspan></text>
      <g>
        <ellipse class="cls-30" cx="324.31" cy="361.82" rx="11.87" ry="12"/>
        <text class="cls-13" transform="translate(318.91 366.69) scale(.99 1)"><tspan x="0" y="0">3</tspan></text>
      </g>
    </g>
    <g>
      <rect class="cls-10" x="324.03" y="271.92" width="165" height="65" rx="4" ry="4"/>
      <text class="cls-16" transform="translate(352.82 309.53)"><tspan x="0" y="0">C</tspan><tspan class="cls-42" x="11.21" y="0">r</tspan><tspan x="17.44" y="0">eate P</tspan><tspan class="cls-45" x="67.01" y="0">r</tspan><tspan x="73.24" y="0">ofi</tspan><tspan class="cls-34" x="93.53" y="0">l</tspan><tspan class="cls-25" x="97.92" y="0">e</tspan></text>
      <g>
        <circle class="cls-30" cx="324.31" cy="271.15" r="12"/>
        <text class="cls-13" transform="translate(318.85 276.62)"><tspan x="0" y="0">2</tspan></text>
      </g>
    </g>
    <g>
      <rect class="cls-10" x="514.1" y="180.26" width="165" height="65" rx="4" ry="4"/>
      <text class="cls-16" transform="translate(536.82 217.86) scale(.99 1)"><tspan x="0" y="0">Activate Devi</tspan><tspan class="cls-51" x="103.07" y="0">c</tspan><tspan x="111.42" y="0">e</tspan></text>
      <g>
        <ellipse class="cls-30" cx="514.37" cy="179.86" rx="11.87" ry="12"/>
        <text class="cls-13" transform="translate(508.97 184.73) scale(.99 1)"><tspan x="0" y="0">4</tspan></text>
      </g>
    </g>
    <g>
      <rect class="cls-10" x="323.95" y="581.14" width="165" height="65" rx="4" ry="4"/>
      <text class="cls-16" transform="translate(332.28 618.55) scale(.99 1)"><tspan x="0" y="0">Manage the Devi</tspan><tspan class="cls-48" x="132.17" y="0">c</tspan><tspan x="140.52" y="0">e</tspan></text>
      <g>
        <ellipse class="cls-30" cx="324.22" cy="580.92" rx="11.87" ry="12"/>
        <text class="cls-13" transform="translate(318.82 585.79) scale(.99 1)"><tspan x="0" y="0">6</tspan></text>
      </g>
    </g>
    <g>
      <line class="cls-6" x1="500" y1="127" x2="500" y2="128.5"/>
      <line class="cls-9" x1="500" y1="136.46" x2="500" y2="745.52"/>
      <line class="cls-6" x1="500" y1="749.5" x2="500" y2="751"/>
    </g>
  </g>
</svg>