<?xml version="1.0" encoding="UTF-8"?>
<svg id="UI_Toolkit" data-name="UI Toolkit" xmlns="http://www.w3.org/2000/svg" xmlns:xlink="http://www.w3.org/1999/xlink" viewBox="0 0 1000 800">
  <defs>
    <style>
      .cls-1 {
        letter-spacing: 0em;
      }

      .cls-2, .cls-3, .cls-4, .cls-5, .cls-6, .cls-7, .cls-8, .cls-9 {
        opacity: .5;
      }

      .cls-2, .cls-10 {
        fill: #525252;
      }

      .cls-11, .cls-12, .cls-13 {
        fill: #0a69b3;
      }

      .cls-3, .cls-14 {
        fill: #00a3f6;
      }

      .cls-15, .cls-16, .cls-8, .cls-17, .cls-18 {
        fill: #fff;
      }

      .cls-15, .cls-12, .cls-19, .cls-20, .cls-13 {
        stroke: #0a69b3;
      }

      .cls-15, .cls-12, .cls-13 {
        stroke-linecap: round;
        stroke-linejoin: round;
      }

      .cls-16, .cls-4, .cls-21, .cls-8 {
        font-size: 18px;
      }

      .cls-16, .cls-22, .cls-23, .cls-24, .cls-25, .cls-8 {
        font-family: IntelClear-Regular, 'Intel Clear';
      }

      .cls-12 {
        stroke-width: 1.94px;
      }

      .cls-19, .cls-26, .cls-20, .cls-27, .cls-5, .cls-6, .cls-28, .cls-29, .cls-30, .cls-31 {
        fill: none;
        stroke-miterlimit: 10;
      }

      .cls-26 {
        stroke: #b4f0ff;
      }

      .cls-4, .cls-21 {
        font-family: IntelClear-Bold, 'Intel Clear';
      }

      .cls-4, .cls-21, .cls-32, .cls-33 {
        font-weight: 700;
      }

      .cls-4, .cls-21, .cls-34 {
        fill: #00285a;
      }

      .cls-20 {
        stroke-dasharray: 3.29 8.77;
      }

      .cls-22, .cls-23 {
        font-size: 12px;
      }

      .cls-27 {
        stroke: #00a3f6;
      }

      .cls-32 {
        font-family: IntelOneDisplay-Bold, 'IntelOne Display';
      }

      .cls-32, .cls-35 {
        fill: #0068b5;
      }

      .cls-32, .cls-17 {
        font-size: 21px;
      }

      .cls-33 {
        fill: #004a86;
        font-family: IntelClearPro-Bold, 'Intel Clear Pro';
        font-size: 60px;
      }

      .cls-36 {
        letter-spacing: 0em;
      }

      .cls-5, .cls-29, .cls-30, .cls-31 {
        stroke: #525252;
      }

      .cls-37 {
        fill: #b4f0ff;
      }

      .cls-6 {
        stroke: #aeaeae;
        stroke-width: 20.05px;
      }

      .cls-38 {
        letter-spacing: 0em;
      }

      .cls-13 {
        stroke-width: 1.39px;
      }

      .cls-39 {
        letter-spacing: 0em;
      }

      .cls-40 {
        letter-spacing: 0em;
      }

      .cls-23 {
        fill: #525352;
      }

      .cls-24, .cls-41, .cls-9 {
        fill: #939598;
        font-size: 14px;
      }

      .cls-25 {
        fill: #164171;
        font-size: 26px;
      }

      .cls-28 {
        stroke: #b4f0ff;
      }

      .cls-42 {
        letter-spacing: -.1em;
      }

      .cls-43 {
        letter-spacing: -.1em;
      }

      .cls-44 {
        letter-spacing: -.1em;
      }

      .cls-41, .cls-17, .cls-18, .cls-9 {
        font-family: IntelClear-Light, 'Intel Clear';
        font-weight: 300;
      }

      .cls-45 {
        letter-spacing: -.02em;
      }

      .cls-46 {
        letter-spacing: -.02em;
      }

      .cls-47 {
        letter-spacing: -.02em;
      }

      .cls-48 {
        letter-spacing: -.02em;
      }

      .cls-49 {
        letter-spacing: -.02em;
      }

      .cls-50 {
        letter-spacing: -.02em;
      }

      .cls-51 {
        letter-spacing: -.01em;
      }

      .cls-52 {
        letter-spacing: -.01em;
      }

      .cls-29 {
        stroke-width: 1.08px;
      }

      .cls-30 {
        stroke-width: 1.07px;
      }

      .cls-53 {
        letter-spacing: -.04em;
      }

      .cls-54 {
        letter-spacing: -.03em;
      }

      .cls-55 {
        letter-spacing: -.01em;
      }

      .cls-56 {
        letter-spacing: 0em;
      }

      .cls-57 {
        letter-spacing: 0em;
      }

      .cls-58 {
        letter-spacing: 0em;
      }

      .cls-59 {
        letter-spacing: 0em;
      }

      .cls-18 {
        font-size: 24px;
      }

      .cls-60 {
        letter-spacing: .03em;
      }

      .cls-61 {
        letter-spacing: .02em;
      }

      .cls-62 {
        letter-spacing: .01em;
      }

      .cls-63 {
        letter-spacing: .05em;
      }

      .cls-64 {
        letter-spacing: .05em;
      }

      .cls-65 {
        letter-spacing: 0em;
      }

      .cls-66 {
        letter-spacing: 0em;
      }
    </style>
    <symbol id="_1.DeployMicroservices" data-name="1.DeployMicroservices" viewBox="0 0 341.58 53.09">
      <g>
        <g>
          <rect class="cls-10" y="0" width="229" height="32" rx="16" ry="16"/>
          <circle class="cls-14" cx="16" cy="16" r="12"/>
          <text class="cls-21" transform="translate(10.15 21.04)"><tspan x="0" y="0">1</tspan></text>
          <text class="cls-16" transform="translate(41.44 21.08)"><tspan x="0" y="0">Dep</tspan><tspan class="cls-46" x="33.05" y="0">l</tspan><tspan class="cls-36" x="37.67" y="0">oy Mic</tspan><tspan class="cls-50" x="90" y="0">r</tspan><tspan x="96.42" y="0">ose</tspan><tspan class="cls-64" x="125.13" y="0">r</tspan><tspan class="cls-39" x="132.82" y="0">vi</tspan><tspan class="cls-58" x="146.37" y="0">c</tspan><tspan class="cls-36" x="154.92" y="0">es</tspan></text>
        </g>
        <text class="cls-41" transform="translate(12.27 49.2)"><tspan x="0" y="0">to Deve</tspan><tspan class="cls-46" x="47.57" y="0">l</tspan><tspan x="50.99" y="0">opme</tspan><tspan class="cls-51" x="86.97" y="0">n</tspan><tspan class="cls-38" x="94.86" y="0">t </tspan><tspan class="cls-54" x="103.04" y="0">S</tspan><tspan x="110.72" y="0">ystem or C</tspan><tspan class="cls-46" x="177.08" y="0">l</tspan><tspan x="180.5" y="0">oud</tspan></text>
        <path class="cls-35" d="M339.63,24.71s3.74-4.79.88-10.14c-2.31-4.31-9.33-4.22-9.33-4.22,0,0,.68-7.54-8.19-7.54-7.24,0-7.49,6.42-7.49,6.42,0,0-5.47-2.67-9.28.49-3.25,2.7-2.15,7.01-2.15,7.01,0,0-4.86-.84-6.86,1.55-1.74,2.07-.48,6.2,1.07,6.18,12.18-.13,41.34.25,41.34.25"/>
        <path class="cls-35" d="M247.18,31.55v-3.45h38v3.45h-38ZM252.36,26.36c-.95,0-1.76-.34-2.44-1.01-.68-.68-1.01-1.49-1.01-2.44V3.91c0-.95.34-1.76,1.01-2.44s1.49-1.01,2.44-1.01h27.64c.95,0,1.76.34,2.44,1.01s1.01,1.49,1.01,2.44v19c0,.95-.34,1.76-1.01,2.44-.68.68-1.49,1.01-2.44,1.01h-27.64ZM252.36,22.91h27.64V3.91h-27.64v19ZM252.36,22.91V3.91v19Z"/>
      </g>
    </symbol>
    <symbol id="IntelAMT" viewBox="0 0 270.31 61">
      <g>
        <rect class="cls-34" width="270.31" height="61" rx="4" ry="4"/>
        <text class="cls-18" transform="translate(74.17 37.46)"><tspan x="0" y="0">I</tspan><tspan class="cls-52" x="5.9" y="0">n</tspan><tspan x="19.44" y="0">tel® AMT</tspan></text>
      </g>
    </symbol>
    <symbol id="Legend" viewBox="0 0 215.57 77.94">
      <g>
        <text class="cls-24" transform="translate(40.92 13.18) rotate(-.44)"><tspan x="0" y="0">Devi</tspan><tspan class="cls-55" x="27.79" y="0">c</tspan><tspan x="34.44" y="0">e Manageme</tspan><tspan class="cls-51" x="114.99" y="0">n</tspan><tspan x="123.03" y="0">t </tspan><tspan class="cls-42" x="131.33" y="0">T</tspan><tspan x="138.42" y="0">oolkit</tspan><tspan class="cls-45" x="0" y="16.8">C</tspan><tspan x="8.57" y="16.8">ompone</tspan><tspan class="cls-51" x="61.67" y="16.8">n</tspan><tspan x="69.71" y="16.8">t</tspan></text>
        <path class="cls-11" d="M28.03,32.76l-23.82.19c-2.2.02-4.01-1.77-4.03-3.97L0,5.16C-.02,2.96,1.77,1.14,3.97,1.13l23.82-.19c2.2-.02,4.01,1.77,4.03,3.97l.18,23.81c.02,2.2-1.77,4.01-3.97,4.03Z"/>
        <text class="cls-24" transform="translate(40.92 67.4) rotate(-.44)"><tspan x="0" y="0">I</tspan><tspan class="cls-48" x="3.78" y="0">n</tspan><tspan class="cls-38" x="11.82" y="0">tel® Ha</tspan><tspan class="cls-51" x="54.63" y="0">r</tspan><tspan x="59.62" y="0">dwa</tspan><tspan class="cls-48" x="85.71" y="0">r</tspan><tspan x="90.7" y="0">e/Fir</tspan><tspan class="cls-57" x="119.94" y="0">m</tspan><tspan class="cls-38" x="132.13" y="0">wa</tspan><tspan class="cls-51" x="149.76" y="0">r</tspan><tspan x="154.75" y="0">e</tspan></text>
        <path class="cls-34" d="M28.03,77.76l-23.82.19c-2.2.02-4.01-1.77-4.03-3.97L0,50.16c-.02-2.2,1.77-4.01,3.97-4.03l23.82-.19c2.2-.02,4.01,1.77,4.03,3.97l.18,23.81c.02,2.2-1.77,4.01-3.97,4.03Z"/>
      </g>
    </symbol>
    <symbol id="LightweightClient" viewBox="0 0 271 266">
      <g>
        <rect class="cls-13" x="26.5" y="79.23" width="218" height="167" rx="4" ry="4"/>
        <rect class="cls-27" x=".5" y=".5" width="270" height="265" rx="4" ry="4"/>
        <text class="cls-32" transform="translate(46.46 33.18)"><tspan x="0" y="0">Light</tspan><tspan class="cls-47" x="50.29" y="0">w</tspan><tspan x="67.41" y="0">eight Client</tspan></text>
        <text class="cls-17" transform="translate(96.93 142.95)"><tspan class="cls-49" x="0" y="0">R</tspan><tspan x="12.31" y="0">emote </tspan><tspan x="-20.89" y="25.2">P</tspan><tspan class="cls-49" x="-8.21" y="25.2">r</tspan><tspan x="-.94" y="25.2">ovisioning </tspan><tspan x="-15.42" y="50.4">Clie</tspan><tspan class="cls-49" x="18.97" y="50.4">n</tspan><tspan x="30.82" y="50.4">t (RPC)</tspan></text>
        <rect class="cls-26" x="41.5" y="93.23" width="188" height="138" rx="4" ry="4"/>
      </g>
    </symbol>
    <symbol id="Microservices" viewBox="0 0 256 429">
      <g>
        <rect class="cls-27" x=".5" y=".5" width="255" height="428" rx="4" ry="4"/>
        <text class="cls-32" transform="translate(58.51 33.43)"><tspan x="0" y="0">Mic</tspan><tspan class="cls-55" x="35.85" y="0">r</tspan><tspan x="43.91" y="0">oservices</tspan></text>
        <rect class="cls-12" x="19" y="73.73" width="218" height="327" rx="4" ry="4"/>
        <g>
          <text class="cls-17" transform="translate(89.56 138.64)"><tspan class="cls-49" x="0" y="0">R</tspan><tspan x="12.31" y="0">emote </tspan><tspan x="-18.33" y="25.2">P</tspan><tspan class="cls-49" x="-5.65" y="25.2">r</tspan><tspan x="1.62" y="25.2">ovisioning</tspan><tspan class="cls-52" x="-18.77" y="50.4">S</tspan><tspan x="-6.82" y="50.4">e</tspan><tspan class="cls-63" x="4.26" y="50.4">r</tspan><tspan x="13" y="50.4">ver (RPS)</tspan></text>
          <rect class="cls-28" x="34" y="89.23" width="188" height="138" rx="4" ry="4"/>
        </g>
        <g>
          <text class="cls-17" transform="translate(67.46 297.03)"><tspan x="0" y="0">Manageme</tspan><tspan class="cls-52" x="102.35" y="0">n</tspan><tspan x="114.2" y="0">t</tspan><tspan x="18.33" y="25.2">P</tspan><tspan class="cls-49" x="31.02" y="25.2">r</tspan><tspan class="cls-40" x="38.28" y="25.2">esen</tspan><tspan class="cls-56" x="82.17" y="25.2">c</tspan><tspan x="91.92" y="25.2">e</tspan><tspan class="cls-52" x="1.06" y="50.4">S</tspan><tspan x="13.01" y="50.4">e</tspan><tspan class="cls-63" x="24.1" y="50.4">r</tspan><tspan x="32.83" y="50.4">ver (MPS)</tspan></text>
          <rect class="cls-26" x="34" y="247.23" width="188" height="138" rx="4" ry="4"/>
        </g>
      </g>
    </symbol>
    <symbol id="UIToolkit" viewBox="0 0 271 427">
      <g>
        <rect class="cls-27" x=".5" y=".5" width="270" height="426" rx="4" ry="4"/>
        <text class="cls-32" transform="translate(88.88 32.47)"><tspan x="0" y="0">UI</tspan><tspan class="cls-56" x="21.82" y="0"> </tspan><tspan class="cls-44" x="25.12" y="0">T</tspan><tspan class="cls-40" x="37.57" y="0">oolkit</tspan></text>
        <g>
          <rect class="cls-35" x="26.5" y="74.87" width="218" height="292" rx="4" ry="4"/>
          <text class="cls-17" transform="translate(114.37 122.01)"><tspan x="0" y="0">KVM</tspan><tspan x="-13.21" y="25.2">Modu</tspan><tspan class="cls-47" x="40.38" y="25.2">l</tspan><tspan x="45.51" y="25.2">e</tspan></text>
          <rect class="cls-26" x="37" y="83.37" width="198.12" height="86" rx="4" ry="4"/>
          <text class="cls-17" transform="translate(116.56 214.98)"><tspan x="0" y="0">SOL</tspan><tspan x="-15.4" y="25.2">Modu</tspan><tspan class="cls-47" x="38.19" y="25.2">l</tspan><tspan x="43.31" y="25.2">e</tspan></text>
          <rect class="cls-26" x="37" y="176.37" width="198.12" height="86" rx="4" ry="4"/>
          <text class="cls-17" transform="translate(114.09 307.95)"><tspan x="0" y="0">IDER</tspan><tspan x="-12.94" y="25.2">Modu</tspan><tspan class="cls-47" x="40.66" y="25.2">l</tspan><tspan x="45.78" y="25.2">e</tspan></text>
          <rect class="cls-26" x="37" y="269.37" width="198.12" height="86" rx="4" ry="4"/>
        </g>
      </g>
    </symbol>
  </defs>
  <use width="271" height="266" transform="translate(644.5 176.62)" xlink:href="#LightweightClient"/>
  <use width="256" height="429" transform="translate(311.91 173)" xlink:href="#Microservices"/>
  <text class="cls-25" transform="translate(848.22 55.51)"><tspan x="0" y="0">UI </tspan><tspan class="cls-43" x="31.72" y="0">T</tspan><tspan x="44.88" y="0">oolkit</tspan></text>
  <text class="cls-33" transform="translate(38.72 70.51)"><tspan x="0" y="0">D</tspan><tspan class="cls-65" x="20.7" y="0">e</tspan><tspan class="cls-1" x="38.28" y="0">vice Management </tspan><tspan class="cls-59" x="322.19" y="0">T</tspan><tspan class="cls-1" x="340.01" y="0">oolkit </tspan></text>
  <rect class="cls-2" x="653" y="114" width="249" height="32" rx="16" ry="16"/>
  <text class="cls-8" transform="translate(694.59 135.33)"><tspan x="0" y="0">Dep</tspan><tspan class="cls-46" x="33.05" y="0">l</tspan><tspan class="cls-36" x="37.67" y="0">oy RPC Application</tspan></text>
  <circle class="cls-3" cx="669" cy="130" r="12"/>
  <text class="cls-4" transform="translate(663.3 135.3)"><tspan x="0" y="0">2</tspan></text>
  <text class="cls-9" transform="translate(718.97 163.33)"><tspan x="0" y="0">to Managed Devi</tspan><tspan class="cls-57" x="103.7" y="0">c</tspan><tspan x="110.19" y="0">e</tspan></text>
  <g class="cls-7">
    <g>
      <polyline class="cls-31" points="545 378.5 852.5 378.5 852.5 598.03"/>
      <polygon class="cls-10" points="846.27 596.21 852.5 607 858.73 596.21 846.27 596.21"/>
    </g>
  </g>
  <rect class="cls-2" x="560" y="363" width="175" height="32" rx="16" ry="16"/>
  <g class="cls-7">
    <circle class="cls-14" cx="575" cy="379" r="12"/>
    <text class="cls-21" transform="translate(569.95 384.6)"><tspan x="0" y="0">3</tspan></text>
  </g>
  <g>
    <polyline class="cls-31" points="155.5 540 155.5 658.5 453.5 658.5 453.5 583.97"/>
    <polygon class="cls-10" points="459.73 585.79 453.5 575 447.27 585.79 459.73 585.79"/>
  </g>
  <rect class="cls-10" x="185" y="642" width="236" height="32" rx="16" ry="16"/>
  <text class="cls-16" transform="translate(225.09 663.17)"><tspan x="0" y="0">Add AMT fun</tspan><tspan class="cls-66" x="106.83" y="0">c</tspan><tspan class="cls-36" x="115.7" y="0">tionali</tspan><tspan class="cls-62" x="166.35" y="0">t</tspan><tspan x="172.91" y="0">y</tspan></text>
  <g>
    <circle class="cls-14" cx="201" cy="658" r="12"/>
    <text class="cls-21" transform="translate(195.19 664.13)"><tspan x="0" y="0">6</tspan></text>
  </g>
  <g class="cls-7">
    <rect class="cls-35" x="907" y="120" width="63" height="20" rx="10" ry="10"/>
    <circle class="cls-15" cx="958.5" cy="130.5" r="3"/>
    <rect class="cls-15" x="913.5" y="128.5" width="11" height="4"/>
    <rect class="cls-15" x="927.5" y="128.5" width="11" height="4"/>
  </g>
  <g class="cls-7">
    <g>
      <line class="cls-19" x1="616.5" y1="105" x2="616.5" y2="106.5"/>
      <line class="cls-20" x1="616.5" y1="115.27" x2="616.5" y2="159.12"/>
      <line class="cls-19" x1="616.5" y1="163.5" x2="616.5" y2="165"/>
    </g>
  </g>
  <g class="cls-7">
    <g>
      <line class="cls-31" x1="738" y1="377.5" x2="813.03" y2="377.5"/>
      <polygon class="cls-10" points="811.21 383.73 822 377.5 811.21 371.27 811.21 383.73"/>
    </g>
  </g>
  <polyline class="cls-6" points="546 485 772 485 772 607"/>
  <g class="cls-7">
    <g>
      <polyline class="cls-30" points="555.63 478.5 777.5 478.5 777.5 606"/>
      <polygon class="cls-10" points="557.58 485.19 546 478.5 557.58 471.81 557.58 485.19"/>
    </g>
  </g>
  <g class="cls-7">
    <g>
      <polyline class="cls-29" points="546 489.5 769.5 489.5 769.5 596.34"/>
      <polygon class="cls-10" points="762.79 594.38 769.5 606 776.21 594.38 762.79 594.38"/>
    </g>
  </g>
  <line class="cls-5" x1="715.5" y1="456" x2="715.5" y2="479"/>
  <line class="cls-5" x1="729" y1="542.5" x2="770" y2="542.31"/>
  <text class="cls-8" transform="translate(593.95 383.63)"><tspan class="cls-46" x="0" y="0">C</tspan><tspan x="11.02" y="0">o</tspan><tspan class="cls-58" x="21.64" y="0">n</tspan><tspan x="32.06" y="0">figu</tspan><tspan class="cls-50" x="62.77" y="0">r</tspan><tspan x="69.19" y="0">e AMT</tspan></text>
  <rect class="cls-2" x="560" y="434" width="175" height="32" rx="16" ry="16"/>
  <text class="cls-8" transform="translate(593.95 455)"><tspan class="cls-46" x="0" y="0">C</tspan><tspan x="11.02" y="0">onne</tspan><tspan class="cls-66" x="52.54" y="0">c</tspan><tspan x="61.42" y="0">t AMT</tspan></text>
  <g class="cls-7">
    <circle class="cls-14" cx="575" cy="450" r="12"/>
    <text class="cls-21" transform="translate(568.95 455.98)"><tspan x="0" y="0">4</tspan></text>
  </g>
  <g class="cls-7">
    <rect class="cls-10" x="518" y="526" width="216" height="32" rx="16" ry="16"/>
    <text class="cls-16" transform="translate(552.49 547.22)"><tspan x="0" y="0">Issue AMT </tspan><tspan class="cls-46" x="88.13" y="0">C</tspan><tspan x="99.14" y="0">ommand</tspan></text>
    <g>
      <circle class="cls-14" cx="534" cy="542" r="12"/>
      <text class="cls-21" transform="translate(528.49 547.2)"><tspan x="0" y="0">5</tspan></text>
    </g>
  </g>
  <use width="271" height="427" transform="translate(36.16 173)" xlink:href="#UIToolkit"/>
  <g>
    <g class="cls-7">
      <rect class="cls-37" x="816" y="414" width="74" height="24" rx="12" ry="12" transform="translate(1279 -427) rotate(90)"/>
      <text class="cls-23" transform="translate(849.36 401.13) rotate(90)"><tspan x="0" y="0">WS-MAN</tspan></text>
    </g>
    <path class="cls-35" d="M874.5,463c-.55,0-1.02-.2-1.41-.59s-.59-.86-.59-1.41v-10c0-.55.2-1.02.59-1.41s.86-.59,1.41-.59h1v-2c0-1.38.49-2.56,1.46-3.54s2.15-1.46,3.54-1.46,2.56.49,3.54,1.46,1.46,2.15,1.46,3.54v2h1c.55,0,1.02.2,1.41.59s.59.86.59,1.41v10c0,.55-.2,1.02-.59,1.41s-.86.59-1.41.59h-12ZM874.5,461h12v-10h-12v10ZM880.5,458c.55,0,1.02-.2,1.41-.59s.59-.86.59-1.41-.2-1.02-.59-1.41-.86-.59-1.41-.59-1.02.2-1.41.59-.59.86-.59,1.41.2,1.02.59,1.41.86.59,1.41.59ZM877.5,449h6v-2c0-.83-.29-1.54-.88-2.13s-1.29-.88-2.13-.88-1.54.29-2.13.88-.88,1.29-.88,2.13v2ZM874.5,461v-10,10Z"/>
  </g>
  <g>
    <g class="cls-7">
      <rect class="cls-37" x="598" y="473.25" width="94" height="24" rx="12" ry="12"/>
      <text class="cls-22" transform="translate(608.33 488.17)"><tspan x="0" y="0">CI</tspan><tspan class="cls-60" x="10.82" y="0">R</tspan><tspan x="18.48" y="0">A </tspan><tspan class="cls-61" x="29.2" y="0">C</tspan><tspan x="37.05" y="0">hannel</tspan></text>
    </g>
    <path class="cls-35" d="M636.5,518.75c-.55,0-1.02-.2-1.41-.59s-.59-.86-.59-1.41v-10c0-.55.2-1.02.59-1.41s.86-.59,1.41-.59h1v-2c0-1.38.49-2.56,1.46-3.54s2.15-1.46,3.54-1.46,2.56.49,3.54,1.46,1.46,2.15,1.46,3.54v2h1c.55,0,1.02.2,1.41.59s.59.86.59,1.41v10c0,.55-.2,1.02-.59,1.41s-.86.59-1.41.59h-12ZM636.5,516.75h12v-10h-12v10ZM642.5,513.75c.55,0,1.02-.2,1.41-.59s.59-.86.59-1.41-.2-1.02-.59-1.41-.86-.59-1.41-.59-1.02.2-1.41.59-.59.86-.59,1.41.2,1.02.59,1.41.86.59,1.41.59ZM639.5,504.75h6v-2c0-.83-.29-1.54-.88-2.13s-1.29-.88-2.13-.88-1.54.29-2.13.88-.88,1.29-.88,2.13v2ZM636.5,516.75v-10,10Z"/>
  </g>
  <g>
    <rect class="cls-37" x="110.49" y="587.45" width="90" height="23.6" rx="11.8" ry="11.8" transform="translate(755.77 447.79) rotate(90.39)"/>
    <path class="cls-35" d="M122.49,636.21c-.55,0-1.02-.2-1.41-.59s-.59-.86-.59-1.41v-10c0-.55.2-1.02.59-1.41s.86-.59,1.41-.59h1v-2c0-1.38.49-2.56,1.46-3.54s2.15-1.46,3.54-1.46,2.56.49,3.54,1.46,1.46,2.15,1.46,3.54v2h1c.55,0,1.02.2,1.41.59s.59.86.59,1.41v10c0,.55-.2,1.02-.59,1.41s-.86.59-1.41.59h-12ZM122.49,634.21h12v-10h-12v10ZM128.49,631.21c.55,0,1.02-.2,1.41-.59s.59-.86.59-1.41-.2-1.02-.59-1.41-.86-.59-1.41-.59-1.02.2-1.41.59-.59.86-.59,1.41.2,1.02.59,1.41.86.59,1.41.59ZM125.49,622.21h6v-2c0-.83-.29-1.54-.88-2.13s-1.29-.88-2.13-.88-1.54.29-2.13.88-.88,1.29-.88,2.13v2ZM122.49,634.21v-10,10Z"/>
    <text class="cls-23" transform="translate(158.28 630.08) rotate(-89.61)"><tspan class="cls-53" x="0" y="0">W</tspan><tspan x="10.93" y="0">ebsoc</tspan><tspan class="cls-46" x="43.14" y="0">k</tspan><tspan x="49.21" y="0">ets</tspan></text>
  </g>
  <use width="270.31" height="61" transform="translate(648.35 608)" xlink:href="#IntelAMT"/>
  <use width="341.58" height="53.09" transform="translate(195.04 105.95)" xlink:href="#_1.DeployMicroservices"/>
  <use width="215.57" height="77.94" transform="translate(38.21 685.11)" xlink:href="#Legend"/>
</svg>